<svg width="26" height="24" viewBox="0 0 26 24" fill="none" xmlns="http://www.w3.org/2000/svg">
<path d="M17.0776 20.1614C18.2119 20.1614 19.1314 19.2419 19.1314 18.1076V9.73856C19.1314 8.60431 18.2119 7.68481 17.0776 7.68481H2.62876C1.49451 7.68481 0.575012 8.60431 0.575012 9.73856V18.1076C0.575012 19.2419 1.49451 20.1614 2.62876 20.1614H2.82306C3.00076 20.1614 3.13511 20.3221 3.10366 20.497L2.59766 23.3066C2.55961 23.5179 2.81361 23.655 2.96931 23.5071L6.30131 20.3442C6.42501 20.2268 6.58906 20.1613 6.75961 20.1613H19.8197H19.8199H17.0776V20.1614Z" fill="#FFA1BC"/>
<path d="M17.0776 7.68481H2.62876C1.49451 7.68481 0.575012 8.60432 0.575012 9.73857V18.1076C0.575012 19.2419 1.49451 20.1614 2.62876 20.1614H2.86106C2.95721 20.1614 3.04941 20.1997 3.11716 20.2679L3.31461 20.4666H5.96981L6.10061 20.3546C6.24626 20.2299 6.43171 20.1614 6.62351 20.1614H17.0776C18.2119 20.1614 19.1314 19.2419 19.1314 18.1076V9.73857C19.1314 8.60432 18.2119 7.68481 17.0776 7.68481Z" fill="#F9CDD9"/>
<path d="M2.82304 20.1612C3.00074 20.1612 3.13514 20.3219 3.10364 20.4968L2.59764 23.3064C2.55959 23.5177 2.81359 23.6548 2.96929 23.5069L6.30129 20.344C6.42499 20.2266 6.58899 20.1612 6.75954 20.1611H6.75959H2.82304V20.1612Z" fill="#F9CDD9"/>
<path d="M19.8195 7.68481H16.6397C17.774 7.68481 18.6935 8.60431 18.6935 9.73856V18.1076C18.6935 19.2419 17.774 20.1614 16.6397 20.1614H19.8195C20.9538 20.1614 21.8733 19.2419 21.8733 18.1076V9.73856C21.8733 8.60431 20.9538 7.68481 19.8195 7.68481Z" fill="#F9CDD9"/>
<path d="M20.6002 12.9079C21.7345 12.9079 22.654 11.9884 22.654 10.8542V2.48515C22.654 1.3509 21.7345 0.431396 20.6002 0.431396H6.18046C5.04621 0.431396 4.12671 1.3509 4.12671 2.48515V10.8542C4.12671 11.9884 5.04621 12.9079 6.18046 12.9079H6.37476C6.55246 12.9079 6.68681 13.0687 6.65536 13.2435L6.14936 16.0532C6.11131 16.2645 6.36531 16.4015 6.52101 16.2537L9.85301 13.0907C9.97671 12.9733 10.1408 12.9078 10.3113 12.9078H20.6002V12.9079Z" fill="#F65D88"/>
<path d="M23.3713 0.431396H20.2056C21.3398 0.431396 22.2593 1.3509 22.2593 2.48515V10.8542C22.2593 11.9884 21.3398 12.9079 20.2056 12.9079H23.3713C24.5055 12.9079 25.425 11.9884 25.425 10.8542V2.4852C25.425 1.3509 24.5055 0.431396 23.3713 0.431396Z" fill="#F65D88"/>
<path d="M6.65531 13.2437L6.14931 16.0533C6.11126 16.2646 6.36526 16.4017 6.52096 16.2538L9.85297 13.0909C9.97667 12.9735 10.1407 12.908 10.3113 12.908H6.37481C6.55241 12.9081 6.68681 13.0688 6.65531 13.2437Z" fill="#F65D88"/>
<path d="M22.1316 3.37573H7.62027C7.41312 3.37573 7.24527 3.54358 7.24527 3.75073C7.24527 3.95788 7.41312 4.12573 7.62027 4.12573H22.1316C22.3387 4.12573 22.5066 3.95788 22.5066 3.75073C22.5066 3.54358 22.3387 3.37573 22.1316 3.37573Z" fill="#FFEFF3"/>
<path d="M22.1316 6.29468H7.62027C7.41312 6.29468 7.24527 6.46253 7.24527 6.66968C7.24527 6.87683 7.41312 7.04468 7.62027 7.04468H22.1316C22.3387 7.04468 22.5066 6.87683 22.5066 6.66968C22.5066 6.46253 22.3387 6.29468 22.1316 6.29468Z" fill="#FFEFF3"/>
<path d="M14.876 9.21362H7.62027C7.41312 9.21362 7.24527 9.38147 7.24527 9.58862C7.24527 9.79577 7.41312 9.96362 7.62027 9.96362H14.8759C15.0831 9.96362 15.2509 9.79577 15.2509 9.58862C15.2509 9.38147 15.0831 9.21362 14.876 9.21362Z" fill="#FFEFF3"/>
<path d="M23.3713 0.0563965H6.18043C4.84123 0.0563965 3.75168 1.14595 3.75168 2.48515V10.8542C3.75168 12.1934 4.84123 13.2829 6.18043 13.2829H6.26718L5.78028 15.9867C5.73433 16.2414 5.85653 16.4952 6.08433 16.6181C6.31108 16.7405 6.59048 16.7048 6.77913 16.5257L10.1111 13.3628C10.1654 13.3113 10.2365 13.2829 10.3113 13.2829H23.3713C24.7105 13.2829 25.8 12.1933 25.8 10.8541V2.48515C25.8 1.14595 24.7105 0.0563965 23.3713 0.0563965ZM25.05 10.8542C25.05 11.7799 24.2969 12.5329 23.3713 12.5329H10.3113C10.0435 12.5329 9.78908 12.6344 9.59483 12.8188L6.60108 15.6607L7.02443 13.31C7.09743 12.9048 6.78578 12.5329 6.37483 12.5329H6.18048C5.25478 12.5329 4.50173 11.7798 4.50173 10.8542V2.48515C4.50173 1.55945 5.25483 0.806397 6.18048 0.806397H23.3713C24.2969 0.806397 25.05 1.55945 25.05 2.48515V10.8542Z" fill="#F65D88"/>
<path d="M21.8734 14.286C21.6662 14.286 21.4984 14.4539 21.4984 14.661V18.1075C21.4984 19.0332 20.7453 19.7863 19.8196 19.7863H6.75946C6.49171 19.7863 6.23726 19.8878 6.04306 20.0722L3.04936 22.914L3.47266 20.5635C3.54561 20.1591 3.23496 19.7863 2.82306 19.7863H2.62876C1.70311 19.7863 0.950012 19.0332 0.950012 18.1075V9.73849C0.950012 8.87974 1.59261 8.16234 2.44476 8.06969C2.65066 8.04734 2.79941 7.86229 2.77706 7.65634C2.75471 7.45049 2.57006 7.30144 2.36371 7.32404C1.13021 7.45819 0.200012 8.49614 0.200012 9.73849V18.1075C0.200012 19.4467 1.28956 20.5363 2.62876 20.5363H2.71546L2.22856 23.2401C2.18266 23.4949 2.30491 23.7486 2.53276 23.8715C2.75951 23.9938 3.03886 23.9581 3.22741 23.779L6.55946 20.6161C6.61371 20.5646 6.68476 20.5362 6.75956 20.5362H19.8196C21.1588 20.5362 22.2484 19.4467 22.2484 18.1075V14.661C22.2484 14.4539 22.0805 14.286 21.8734 14.286Z" fill="#F65D88"/>
</svg>
